Coordinates
version=1
nRows=31
nColumns=34
inDegrees=no

Units are S.I. units (second, meters, Newtons, ...)
If the header above contains a line with 'inDegrees', this indicates whether rotational values are in degrees (yes) or radians (no).

endheader
time	pelvis_tilt	pelvis_list	pelvis_rotation	pelvis_tx	pelvis_ty	pelvis_tz	hip_flexion_r	hip_adduction_r	hip_rotation_r	knee_angle_r	ankle_angle_r	subtalar_angle_r	mtp_angle_r	hip_flexion_l	hip_adduction_l	hip_rotation_l	knee_angle_l	ankle_angle_l	subtalar_angle_l	mtp_angle_l	lumbar_extension	lumbar_bending	lumbar_rotation	arm_flex_r	arm_add_r	arm_rot_r	elbow_flex_r	pro_sup_r	arm_flex_l	arm_add_l	arm_rot_l	elbow_flex_l	pro_sup_l
0.37	0.157755	-0.0074258	0.0868037	0.336612	1.16169	-0.178147	-0.201736	0.0890283	-0.234412	0.138784	0.176309	0.110791	-0.0544831	0.315923	-0.0409062	-0.129753	0.470598	-0.141942	-0.269608	-0.123802	-0.416513	0.12812	0.00186698	-0.065244	-0.210373	-0.28848	0.895944	2.07274	-0.133724	-0.138187	-0.108793	0.90701	2.08004
0.38	0.157663	-0.00875954	0.0863227	0.346811	1.16029	-0.178028	-0.215725	0.0918855	-0.233849	0.132681	0.183964	0.117702	-0.0545772	0.312749	-0.037171	-0.145237	0.421793	-0.128633	-0.230507	-0.123772	-0.417642	0.129261	0.00158192	-0.0638715	-0.212141	-0.29048	0.905059	2.07169	-0.131791	-0.137643	-0.1084	0.903727	2.08031
0.39	0.157944	-0.00998655	0.0859438	0.357095	1.15879	-0.17795	-0.229915	0.0945363	-0.233597	0.1271	0.191568	0.124796	-0.0546712	0.30863	-0.0327634	-0.16097	0.374408	-0.115732	-0.189934	-0.123741	-0.419025	0.130243	0.00113014	-0.0626454	-0.213727	-0.292278	0.91349	2.07123	-0.129809	-0.137165	-0.107917	0.90003	2.08064
0.4	0.158561	-0.0110065	0.0856076	0.367471	1.15722	-0.177906	-0.244218	0.0968529	-0.233695	0.122136	0.19917	0.132054	-0.0547653	0.303654	-0.0275493	-0.176484	0.328685	-0.10359	-0.148941	-0.123711	-0.420636	0.130927	0.000545021	-0.0615475	-0.21512	-0.293866	0.921137	2.07126	-0.127782	-0.136744	-0.107404	0.895952	2.0811
0.41	0.159467	-0.0117306	0.0852633	0.377949	1.15559	-0.177893	-0.258548	0.0987322	-0.234167	0.117853	0.206807	0.139432	-0.0548594	0.297919	-0.021445	-0.191301	0.284862	-0.0924908	-0.10862	-0.123681	-0.422439	0.131192	-0.000152595	-0.0605624	-0.216304	-0.295246	0.927915	2.07164	-0.125718	-0.136368	-0.106934	0.891532	2.08173
0.42	0.160611	-0.012097	0.084873	0.388537	1.15392	-0.177907	-0.272836	0.100112	-0.235019	0.114282	0.214484	0.146852	-0.0549534	0.291548	-0.0144417	-0.204984	0.243217	-0.0826181	-0.070012	-0.123651	-0.424396	0.130948	-0.000950907	-0.0596818	-0.217258	-0.296429	0.933754	2.07227	-0.123634	-0.136027	-0.106582	0.886815	2.08254
0.43	0.161941	-0.012082	0.0844115	0.399241	1.15221	-0.17794	-0.287021	0.100977	-0.236223	0.11143	0.222164	0.154203	-0.0550475	0.284703	-0.00662272	-0.217203	0.204112	-0.0740196	-0.0340169	-0.123621	-0.426458	0.130148	-0.00183936	-0.0589097	-0.217963	-0.297438	0.938604	2.07306	-0.121554	-0.13571	-0.106417	0.881851	2.08353
0.44	0.163403	-0.0117041	0.0838631	0.410067	1.15047	-0.177986	-0.301048	0.101363	-0.237717	0.109287	0.229768	0.161339	-0.0551416	0.277595	0.00183349	-0.22778	0.168013	-0.06659	-0.00132464	-0.123591	-0.428572	0.128792	-0.00279916	-0.0582663	-0.218401	-0.298301	0.942439	2.07397	-0.119514	-0.135412	-0.106495	0.876691	2.08463
0.45	0.164945	-0.0110203	0.0832143	0.421018	1.14871	-0.178036	-0.314859	0.101339	-0.239398	0.107847	0.23718	0.168082	-0.0552357	0.270476	0.0106665	-0.236706	0.135483	-0.0600705	0.0276327	-0.123561	-0.430679	0.12692	-0.00379485	-0.0577889	-0.218557	-0.299055	0.945256	2.07493	-0.117553	-0.135125	-0.106857	0.871388	2.08578
0.46	0.166515	-0.0101151	0.0824461	0.432099	1.14694	-0.178078	-0.328387	0.100996	-0.24113	0.107119	0.244258	0.174236	-0.0553298	0.263612	0.0195639	-0.244122	0.107129	-0.0540773	0.052682	-0.123531	-0.432716	0.124597	-0.00476971	-0.0575306	-0.218425	-0.299736	0.947074	2.07591	-0.115714	-0.134843	-0.107529	0.86599	2.08688
0.47	0.168068	-0.00908519	0.0815273	0.443314	1.14517	-0.178104	-0.341559	0.100417	-0.242746	0.107136	0.250852	0.179602	-0.0554239	0.257249	0.0282034	-0.250256	0.0835182	-0.048164	0.073857	-0.123501	-0.434621	0.1219	-0.0056464	-0.0575559	-0.218006	-0.300371	0.947927	2.07679	-0.114041	-0.134557	-0.108528	0.860546	2.08784
0.48	0.169562	-0.00802229	0.0804086	0.454671	1.1434	-0.178101	-0.354296	0.0996675	-0.244069	0.107961	0.25682	0.183997	-0.055518	0.251567	0.0362959	-0.255343	0.0650761	-0.0419066	0.091314	-0.123471	-0.436334	0.118901	-0.00633288	-0.0579339	-0.21731	-0.300977	0.947863	2.07745	-0.112583	-0.134252	-0.109873	0.855099	2.08859
0.49	0.17097	-0.00699926	0.0790229	0.466178	1.14164	-0.178063	-0.366525	0.0987717	-0.244926	0.109677	0.262047	0.18729	-0.0556121	0.246643	0.0436217	-0.259547	0.0520026	-0.0350014	0.105237	-0.123441	-0.437808	0.115648	-0.00673354	-0.0587295	-0.216359	-0.301544	0.946935	2.07773	-0.111389	-0.133912	-0.111589	0.849696	2.08909
0.5	0.172285	-0.00605883	0.0772895	0.477847	1.1399	-0.177981	-0.378194	0.0977119	-0.245172	0.112384	0.266447	0.189415	-0.0557062	0.242431	0.050056	-0.262916	0.0442167	-0.0273608	0.115749	-0.123412	-0.439012	0.112161	-0.00676477	-0.0599939	-0.215179	-0.302037	0.945195	2.07747	-0.110516	-0.133516	-0.113718	0.84438	2.08935
0.51	0.173526	-0.00520649	0.0751263	0.489693	1.13819	-0.177853	-0.38928	0.0964249	-0.24471	0.116183	0.269969	0.190398	-0.0558003	0.238765	0.0555804	-0.265362	0.0413425	-0.0191905	0.122854	-0.123382	-0.439941	0.108423	-0.00637313	-0.0617554	-0.213808	-0.30239	0.942689	2.0766	-0.110022	-0.133047	-0.116309	0.839194	2.08939
0.52	0.17474	-0.00440976	0.0724653	0.501727	1.13651	-0.177675	-0.399793	0.0948094	-0.243507	0.121179	0.272584	0.190346	-0.0558943	0.235385	0.0602808	-0.266677	0.0427426	-0.0110281	0.126402	-0.123353	-0.440619	0.104384	-0.00555313	-0.0640132	-0.212279	-0.302517	0.939452	2.07513	-0.109963	-0.132494	-0.119417	0.834176	2.08929
0.53	0.175992	-0.00360421	0.0692726	0.513959	1.13487	-0.177449	-0.409764	0.0927382	-0.241608	0.12748	0.274271	0.189434	-0.0559884	0.231984	0.0643298	-0.266585	0.0475967	-0.003719	0.126117	-0.123323	-0.441092	0.0999686	-0.00436134	-0.0667343	-0.210625	-0.302322	0.935504	2.07323	-0.110388	-0.13186	-0.123085	0.829346	2.08912
0.54	0.177363	-0.00266731	0.0655648	0.526396	1.13331	-0.177189	-0.41922	0.0900831	-0.239133	0.135204	0.274987	0.187866	-0.0560824	0.228281	0.0679439	-0.264808	0.0550164	0.00168287	0.121661	-0.123294	-0.441421	0.0951002	-0.0029204	-0.0698548	-0.208863	-0.301712	0.930844	2.07119	-0.111325	-0.131162	-0.127327	0.824701	2.08896
0.55	0.178926	-0.00149063	0.0614263	0.539033	1.13183	-0.176901	-0.428157	0.0867243	-0.236271	0.1445	0.274644	0.185827	-0.0561765	0.224079	0.0713595	-0.261147	0.0641879	0.00408837	0.112738	-0.123265	-0.441673	0.089702	-0.00142112	-0.0732866	-0.206994	-0.300623	0.925451	2.06943	-0.11277	-0.130439	-0.132118	0.820203	2.08884
0.56	0.180728	2.39646e-05	0.0570145	0.551852	1.13048	-0.176596	-0.436504	0.0825781	-0.23326	0.155557	0.273075	0.183426	-0.0562705	0.219335	0.0747801	-0.255537	0.0745072	0.00259831	0.0992214	-0.123236	-0.441897	0.0837258	-0.000107761	-0.0769262	-0.204995	-0.299031	0.919287	2.06846	-0.11468	-0.129749	-0.137381	0.815777	2.08879
0.57	0.182773	0.00194111	0.0525575	0.564826	1.12926	-0.176284	-0.444092	0.0776178	-0.230353	0.168619	0.270014	0.180651	-0.0563645	0.214195	0.0783367	-0.248073	0.0856824	-0.00326425	0.0812565	-0.123207	-0.442117	0.0771732	0.000744685	-0.0806666	-0.202818	-0.296969	0.912302	2.06874	-0.116964	-0.12916	-0.142989	0.811311	2.08874
0.58	0.184995	0.00427279	0.0483387	0.577914	1.12819	-0.175981	-0.450643	0.0718889	-0.22779	0.18398	0.265078	0.177336	-0.0564585	0.208988	0.0820617	-0.238996	0.0977744	-0.0133718	0.0593276	-0.123178	-0.442321	0.0701121	0.00086056	-0.0844097	-0.200396	-0.294534	0.904448	2.07066	-0.119485	-0.128747	-0.148772	0.806667	2.08861
0.59	0.187271	0.00697462	0.0446654	0.591071	1.12729	-0.175707	-0.455763	0.0655144	-0.225756	0.201981	0.25777	0.173165	-0.0565524	0.204191	0.085885	-0.228644	0.11115	-0.0269159	0.0342649	-0.123149	-0.442453	0.0626859	-1.67704e-06	-0.0880787	-0.197649	-0.291882	0.895694	2.07443	-0.122071	-0.128576	-0.154537	0.8017	2.08825
0.6	0.189433	0.00994507	0.0418336	0.604248	1.12656	-0.175481	-0.458971	0.0586783	-0.224352	0.222987	0.247504	0.16771	-0.0566464	0.200339	0.0896542	-0.217377	0.126349	-0.0424727	0.00718254	-0.12312	-0.442425	0.0551037	-0.00201226	-0.0916281	-0.194502	-0.289221	0.886051	2.08001	-0.124524	-0.128699	-0.160085	0.796282	2.0875
0.61	0.19129	0.0130402	0.0400849	0.617399	1.12601	-0.175321	-0.459748	0.0515954	-0.223567	0.247351	0.233647	0.160486	-0.0567403	0.197903	0.0931736	-0.205517	0.143891	-0.058214	-0.0206447	-0.123092	-0.442132	0.047614	-0.00523603	-0.0950506	-0.190897	-0.286787	0.875584	2.08716	-0.126648	-0.129137	-0.165237	0.790331	2.08622
0.62	0.192673	0.0160909	0.0395574	0.630482	1.12564	-0.175239	-0.457599	0.0444718	-0.223255	0.275383	0.215577	0.151032	-0.0568342	0.197172	0.0962549	-0.193324	0.164061	-0.072215	-0.0479231	-0.123063	-0.44148	0.0404648	-0.00960939	-0.0983796	-0.18681	-0.284815	0.864428	2.09539	-0.128271	-0.12988	-0.169857	0.783835	2.08433
0.63	0.193467	0.0189278	0.0402435	0.643459	1.12546	-0.175242	-0.45212	0.0374664	-0.223132	0.307305	0.192761	0.138989	-0.0569281	0.198157	0.0987596	-0.181019	0.186753	-0.0827836	-0.0734668	-0.123035	-0.440412	0.0338595	-0.0149299	-0.101685	-0.182261	-0.283498	0.85279	2.10408	-0.129265	-0.130885	-0.173864	0.776868	2.08186
0.64	0.193639	0.0214084	0.0419679	0.656304	1.12548	-0.175324	-0.443061	0.030663	-0.222785	0.343218	0.164842	0.124167	-0.057022	0.200556	0.100621	-0.168853	0.21139	-0.0887298	-0.0962883	-0.123006	-0.438934	0.0279189	-0.020863	-0.105061	-0.177323	-0.282955	0.840941	2.11255	-0.129563	-0.132084	-0.177239	0.769595	2.07896
0.65	0.193244	0.023444	0.0443893	0.669	1.1257	-0.175471	-0.430355	0.02406	-0.221706	0.383078	0.131718	0.106597	-0.0571159	0.203776	0.101843	-0.157169	0.236978	-0.089514	-0.115647	-0.122978	-0.43712	0.0226597	-0.0269699	-0.108609	-0.172119	-0.283187	0.82919	2.12016	-0.129166	-0.133396	-0.180015	0.762262	2.07593
0.66	0.192416	0.025014	0.047032	0.681539	1.12612	-0.175654	-0.414125	0.0175835	-0.219344	0.426679	0.0936244	0.0865404	-0.0572097	0.207028	0.10249	-0.146429	0.262243	-0.0852604	-0.131082	-0.12295	-0.435114	0.0179943	-0.0327593	-0.11241	-0.166817	-0.284066	0.81785	2.12642	-0.128142	-0.134739	-0.182268	0.755175	2.07316
0.67	0.191347	0.026166	0.0493468	0.693922	1.12676	-0.175842	-0.394667	0.0111116	-0.215181	0.473656	0.0511805	0.0644845	-0.0573035	0.209455	0.102667	-0.137172	0.285836	-0.0766494	-0.142422	-0.122922	-0.4331	0.0137469	-0.0377554	-0.116506	-0.161612	-0.285329	0.807202	2.13109	-0.126619	-0.136053	-0.184089	0.748667	2.07109
